<?xml version="1.0" encoding="utf-8"?>
<!-- Generator: Adobe Illustrator 23.0.1, SVG Export Plug-In . SVG Version: 6.00 Build 0)  -->
<svg version="1.1" id="Capa_1" xmlns="http://www.w3.org/2000/svg" xmlns:xlink="http://www.w3.org/1999/xlink" x="0px" y="0px"
	 viewBox="0 0 512 512" style="enable-background:new 0 0 512 512;" xml:space="preserve">
<style type="text/css">
	.st0{fill:#BC0431;}
</style>
<g>
	<path class="st0" d="M437.2,53.2c-20.7-11.4-44.5-18-69.9-18c-44.8,0-84.8,20.4-111.3,52.4c-26.6-32-66.6-52.4-111.5-52.4
		c-25.3,0-49,6.6-69.8,18C30.2,77.9,0,125.4,0,179.9c0,15.6,2.5,30.6,7.1,44.6C32,336.1,256,476.8,256,476.8S480,336.1,504.8,224.5
		c4.6-14,7.2-29,7.2-44.6C512,125.4,481.8,77.9,437.2,53.2z"/>
</g>
</svg>
